HIERARCHY
ROOT SpineBase
{
  OFFSET 0.000000 0.000000 0.000000
  CHANNELS 6 Xposition Yposition Zposition Zrotation Xrotation Yrotation
  JOINT SpineMid
  {
    OFFSET 0.000000 26.870659 0.000000
    CHANNELS 3 Zrotation Xrotation Yrotation
    JOINT SpineShoulder
    {
      OFFSET -0.057175 20.078774 -0.568741
      CHANNELS 3 Zrotation Xrotation Yrotation
      JOINT Neck
      {
        OFFSET -0.032670 6.683594 -0.453264
        CHANNELS 3 Zrotation Xrotation Yrotation
        JOINT Head
        {
          OFFSET 2.959941 11.701089 0.668772
          CHANNELS 3 Zrotation Xrotation Yrotation
          End Site
          {
            OFFSET 0 0 0
          }
        }
      }
      JOINT ShoulderLeft
      {
        OFFSET -11.234545 -3.144685 -6.512705
        CHANNELS 3 Zrotation Xrotation Yrotation
        JOINT ElbowLeft
        {
          OFFSET -5.721726 -23.812862 1.231775
          CHANNELS 3 Zrotation Xrotation Yrotation
          JOINT WristLeft
          {
            OFFSET -4.760702 -18.085913 -1.454780
            CHANNELS 3 Zrotation Xrotation Yrotation
            JOINT HandLeft
            {
              OFFSET -0.684075 -5.282687 -2.711925
              CHANNELS 3 Zrotation Xrotation Yrotation
              JOINT HandTipLeft
              {
                OFFSET 0.115123 -5.755462 -1.228156
                CHANNELS 3 Zrotation Xrotation Yrotation
                End Site
                {
                  OFFSET 0 0 0
                }
              }
              JOINT ThumbLeft
              {
                OFFSET -2.868252 -0.234166 -0.889884
                CHANNELS 3 Zrotation Xrotation Yrotation
                End Site
                {
                  OFFSET 0 0 0
                }
              }
            }
          }
        }
      }
      JOINT ShoulderRight
      {
        OFFSET 10.750973 -3.302080 3.516814
        CHANNELS 3 Zrotation Xrotation Yrotation
        JOINT ElbowRight
        {
          OFFSET 1.869803 -23.986374 3.702232
          CHANNELS 3 Zrotation Xrotation Yrotation
          JOINT WristRight
          {
            OFFSET -2.780244 -23.000057 -12.078750
            CHANNELS 3 Zrotation Xrotation Yrotation
            JOINT HandRight
            {
              OFFSET -2.136416 -10.220093 -1.753986
              CHANNELS 3 Zrotation Xrotation Yrotation
              JOINT HandTipRight
              {
                OFFSET -0.636119 -3.257193 -0.378361
                CHANNELS 3 Zrotation Xrotation Yrotation
                End Site
                {
                  OFFSET 0 0 0
                }
              }
              JOINT ThumbRight
              {
                OFFSET 2.096993 -1.342647 0.118083
                CHANNELS 3 Zrotation Xrotation Yrotation
                End Site
                {
                  OFFSET 0 0 0
                }
              }
            }
          }
        }
      }
    }
  }
  JOINT HipLeft
  {
    OFFSET -5.561359 1.199522 -4.928073
    CHANNELS 3 Zrotation Xrotation Yrotation
    JOINT KneeLeft
    {
      OFFSET -3.023696 -30.362551 -1.072687
      CHANNELS 3 Zrotation Xrotation Yrotation
      JOINT AnkleLeft
      {
        OFFSET -1.814706 -31.693836 5.461469
        CHANNELS 3 Zrotation Xrotation Yrotation
        JOINT FootLeft
        {
          OFFSET 4.549958 -7.872443 0.748593
          CHANNELS 3 Zrotation Xrotation Yrotation
          End Site
          {
            OFFSET 0 0 0
          }
        }
      }
    }
  }
  JOINT HipRight
  {
    OFFSET 5.241178 0.569875 -1.184874
    CHANNELS 3 Zrotation Xrotation Yrotation
    JOINT KneeRight
    {
      OFFSET -0.151770 -29.072945 1.423688
      CHANNELS 3 Zrotation Xrotation Yrotation
      JOINT AnkleRight
      {
        OFFSET -4.381570 -34.885454 5.390629
        CHANNELS 3 Zrotation Xrotation Yrotation
        JOINT FootRight
        {
          OFFSET -1.612421 -5.322408 -6.652683
          CHANNELS 3 Zrotation Xrotation Yrotation
          End Site
          {
            OFFSET 0 0 0
          }
        }
      }
    }
  }
}
MOTION
Frames: 5
Frame Time: 0.033333
23.362208 79.117654 354.412781 -5.349332 -9.683862 -10.090630 0.032536 -0.154788 9.451245 0.157192 0.011515 -0.230257 3.632520 5.740751 1.281928 0.000000 0.000000 0.000000 137.761575 64.207626 -145.759436 41.551250 36.274170 33.186587 18.980068 -17.017679 6.627169 4.296759 22.449429 33.831977 0.000000 0.000000 0.000000 0.000000 0.000000 0.000000 89.880794 3.848466 2.808466 80.690144 51.230382 -174.869125 -31.523192 12.390328 -50.171175 10.350382 0.319508 7.316533 0.000000 0.000000 0.000000 0.000000 0.000000 0.000000 5.571550 20.880443 7.657432 -6.075822 -11.441925 -0.075816 -17.781465 54.056835 46.663016 0.000000 0.000000 0.000000 3.678437 14.761943 9.309925 -2.593060 -4.399798 -0.448329 7.630853 -9.047114 -4.178266 0.000000 0.000000 0.000000
24.565520 86.985713 353.739157 -4.821124 -8.732958 -17.859412 0.048978 0.003989 17.327805 -0.294474 -0.209293 -0.211531 3.498039 3.246422 1.689571 0.000000 0.000000 0.000000 163.010176 58.279133 174.038175 27.990466 60.991018 65.737910 44.103905 -8.423149 46.139533 -31.914420 45.971963 -29.855024 0.000000 0.000000 0.000000 0.000000 0.000000 0.000000 103.614906 -1.086624 9.565099 99.169226 35.856617 146.167267 -26.744836 8.616807 -56.366032 10.295139 3.139349 6.240791 0.000000 0.000000 0.000000 0.000000 0.000000 0.000000 -0.198869 14.809593 17.259519 -0.762207 -4.722685 0.170169 -14.728853 52.771365 43.748342 0.000000 0.000000 0.000000 -1.148143 10.549797 17.731577 3.489973 0.815970 -0.000044 2.370798 -3.424252 -3.411678 0.000000 0.000000 0.000000
25.556013 94.370149 352.701778 -4.570156 -7.761465 -26.525747 -0.006649 -0.460812 26.055529 -0.498508 -0.121663 -0.207739 4.607408 1.641801 1.800469 0.000000 0.000000 0.000000 179.546086 53.246294 142.227374 -42.634936 67.919130 151.670063 42.743652 -1.177704 75.358507 2.356533 30.459323 -7.391322 0.000000 0.000000 0.000000 0.000000 0.000000 0.000000 112.156504 -2.849025 13.917191 110.490499 20.589326 122.200329 -38.022267 11.098487 -75.019726 12.949319 17.694256 16.885816 0.000000 0.000000 0.000000 0.000000 0.000000 0.000000 -2.369741 9.008387 26.595620 1.784613 1.109235 -0.221413 -10.258504 50.096575 39.619798 0.000000 0.000000 0.000000 -3.218373 7.647302 26.524382 5.902247 3.007293 0.027947 1.375138 0.252214 -4.878481 0.000000 0.000000 0.000000
26.279942 100.978986 351.835560 -5.287794 -7.297339 -35.513700 0.138683 -0.661048 34.986433 -0.735342 -0.231805 -0.246123 4.843629 -0.231744 2.330295 0.000000 0.000000 0.000000 -164.890678 48.575191 112.535246 -71.424805 51.115652 176.871183 34.713750 19.005030 110.007489 6.212716 22.796551 18.515613 0.000000 0.000000 0.000000 0.000000 0.000000 0.000000 120.759399 -6.015432 20.122740 111.477384 4.273385 110.417681 -49.542663 10.717515 -94.450047 9.488785 25.471531 20.737180 0.000000 0.000000 0.000000 0.000000 0.000000 0.000000 -1.300053 5.939131 35.621656 1.257371 5.395544 -0.712942 -8.138269 48.191473 38.343263 0.000000 0.000000 0.000000 -4.255110 7.172147 35.551840 7.174877 2.788556 0.159226 1.480410 0.437136 -6.083050 0.000000 0.000000 0.000000
26.709289 105.987255 350.918686 -5.601539 -6.963238 -32.013098 0.169204 -0.617324 31.469302 -0.814287 -0.347403 -0.264516 6.168545 -0.386181 2.198364 0.000000 0.000000 0.000000 -156.007545 43.827119 92.995216 -77.273975 31.154324 -155.976433 -10.901564 16.985240 -135.563275 -9.501586 16.123687 -66.465985 0.000000 0.000000 0.000000 0.000000 0.000000 0.000000 122.683096 -10.166566 26.363769 112.986321 -9.504348 105.058122 -38.319236 6.031761 -86.575058 9.046303 9.314270 2.017039 0.000000 0.000000 0.000000 0.000000 0.000000 0.000000 0.268462 6.189834 31.952924 -0.727092 6.284403 -0.838624 -3.499927 47.885807 37.102319 0.000000 0.000000 0.000000 -2.252813 6.828355 31.853623 6.046291 3.230386 0.058751 4.631620 -1.856195 -8.613888 0.000000 0.000000 0.000000
